<svg xmlns="http://www.w3.org/2000/svg" width="240" height="240" viewBox="0 0 240 240">
  <!-- Tileable starfield for the Priestess "pre-amnesia" night sky. -->
  <g fill="#ffffff">
    <circle cx="18" cy="26" r="0.9" opacity="0.55"/>
    <circle cx="61" cy="12" r="0.6" opacity="0.30"/>
    <circle cx="97" cy="34" r="1.1" opacity="0.70"/>
    <circle cx="132" cy="9" r="0.7" opacity="0.40"/>
    <circle cx="171" cy="27" r="0.9" opacity="0.60"/>
    <circle cx="208" cy="14" r="0.6" opacity="0.35"/>
    <circle cx="233" cy="41" r="1.0" opacity="0.65"/>
    <circle cx="29" cy="74" r="0.7" opacity="0.38"/>
    <circle cx="76" cy="88" r="1.2" opacity="0.75"/>
    <circle cx="118" cy="69" r="0.6" opacity="0.32"/>
    <circle cx="157" cy="84" r="0.9" opacity="0.58"/>
    <circle cx="201" cy="72" r="0.7" opacity="0.42"/>
    <circle cx="227" cy="97" r="1.1" opacity="0.68"/>
    <circle cx="12" cy="128" r="1.0" opacity="0.62"/>
    <circle cx="52" cy="146" r="0.6" opacity="0.34"/>
    <circle cx="94" cy="125" r="0.8" opacity="0.50"/>
    <circle cx="139" cy="149" r="1.2" opacity="0.72"/>
    <circle cx="178" cy="126" r="0.7" opacity="0.40"/>
    <circle cx="216" cy="150" r="0.9" opacity="0.60"/>
    <circle cx="37" cy="187" r="0.9" opacity="0.55"/>
    <circle cx="82" cy="204" r="0.6" opacity="0.33"/>
    <circle cx="124" cy="186" r="1.0" opacity="0.66"/>
    <circle cx="163" cy="208" r="0.7" opacity="0.38"/>
    <circle cx="206" cy="190" r="1.1" opacity="0.70"/>
    <circle cx="233" cy="218" r="0.6" opacity="0.36"/>
    <circle cx="14" cy="226" r="0.8" opacity="0.48"/>
    <circle cx="67" cy="232" r="0.9" opacity="0.58"/>
    <circle cx="109" cy="222" r="0.6" opacity="0.30"/>
    <circle cx="188" cy="231" r="0.8" opacity="0.52"/>
  </g>
  <!-- Four-point sparkles -->
  <g fill="#ffffff">
    <path d="M97 22v8M93 26h8" stroke="#ffffff" stroke-width="0.9" opacity="0.85"/>
    <path d="M178 114v8M174 118h8" stroke="#ffffff" stroke-width="0.8" opacity="0.70"/>
    <path d="M52 136v7M48.5 139.5h7" stroke="#ffffff" stroke-width="0.8" opacity="0.60"/>
    <path d="M216 140v8M212 144h8" stroke="#ffffff" stroke-width="0.9" opacity="0.75"/>
    <path d="M124 176v7M120.5 179.5h7" stroke="#ffffff" stroke-width="0.8" opacity="0.55"/>
    <path d="M29 64v7M25.5 67.5h7" stroke="#ffffff" stroke-width="0.8" opacity="0.50"/>
  </g>
  <!-- Faint violet dust -->
  <g fill="#a78bfa">
    <circle cx="145" cy="48" r="0.7" opacity="0.40"/>
    <circle cx="63" cy="170" r="0.6" opacity="0.35"/>
    <circle cx="192" cy="172" r="0.7" opacity="0.42"/>
    <circle cx="104" cy="104" r="0.6" opacity="0.30"/>
  </g>
</svg>
